<?xml version="1.0" encoding="iso-8859-1"?>
<!-- Generator: Adobe Illustrator 19.0.0, SVG Export Plug-In . SVG Version: 6.00 Build 0)  -->
<svg xmlns="http://www.w3.org/2000/svg" xmlns:xlink="http://www.w3.org/1999/xlink" version="1.1" id="Layer_1" x="0px" y="0px" viewBox="0 0 512.002 512.002" style="enable-background:new 0 0 512.002 512.002;" xml:space="preserve" width="512px" height="512px">
<g>
	<g>
		<path d="M476.548,400.006c-4.557-7.512-10.354-14.079-17.231-19.527c-0.194-0.163-0.392-0.322-0.594-0.475    c-0.385-0.295-38.501-29.766-56.059-56.391l-30.949-50.997L330.853,43.749c-1.593-8.897-6.909-15.989-14.583-19.454    c-7.494-3.383-16.019-2.759-23.385,1.712l-37.842,22.965c-4.848,2.942-8.773,7.377-11.446,12.529l-29.136-48.01    c-8.024-13.221-25.31-17.452-38.539-9.427l-37.849,22.97c-8.955,5.436-13.777,15.123-13.468,24.916l-12.741-9.817    c-10.448-8.056-25.981-9.075-36.934-2.427L37.088,62.67c-7.373,4.471-11.862,11.747-12.32,19.959    c-0.468,8.409,3.371,16.398,10.534,21.917l78.179,60.23l-10.547,6.401c-7.372,4.473-11.861,11.748-12.318,19.962    c-0.467,8.409,3.373,16.398,10.534,21.913l218.731,168.516c13.586,28.165,21.028,69.439,21.106,69.877    c0.044,0.251,0.093,0.501,0.148,0.749c1.656,8.616,4.808,16.79,9.369,24.306c10.216,16.833,26.376,28.681,45.502,33.36    c5.857,1.432,11.774,2.141,17.652,2.141c13.32,0,26.432-3.638,38.11-10.725c16.834-10.216,28.682-26.376,33.362-45.502    C489.812,436.644,486.763,416.84,476.548,400.006z M72.486,85.436l18.797-11.407l79.823,61.504l29.499,48.609L72.486,85.436z     M138.337,193.941l7.275-4.415l109.423,84.301l11.423,18.823L138.337,193.941z M316.591,257.774l-6.003,34.68L166.059,54.297    l21.133-12.824l129.931,214.099C316.908,256.288,316.722,257.019,316.591,257.774z M287.746,134.25l-9.808-54.923l18.801-11.411    l20.529,114.98L287.746,134.25z M448.388,446.781c-2.279,9.311-8.046,17.179-16.243,22.153    c-8.193,4.972-17.833,6.459-27.146,4.179c-9.311-2.279-17.178-8.045-22.151-16.24c-2.276-3.75-3.83-7.833-4.619-12.138    c-0.029-0.165-0.063-0.329-0.097-0.493c-1.163-6.363-10.532-55.401-28.436-87.327c-0.106-0.189-0.216-0.376-0.328-0.561    l-8.906-14.676l6.417-37.074l23.623,38.926c0.112,0.185,0.228,0.368,0.345,0.55c20.044,30.605,59.188,61.538,64.327,65.533    c0.131,0.108,0.264,0.214,0.397,0.319c3.456,2.691,6.363,5.956,8.638,9.702C449.182,427.829,450.665,437.47,448.388,446.781z" fill="#75c73a"/>
	</g>
</g>
<g>
</g>
<g>
</g>
<g>
</g>
<g>
</g>
<g>
</g>
<g>
</g>
<g>
</g>
<g>
</g>
<g>
</g>
<g>
</g>
<g>
</g>
<g>
</g>
<g>
</g>
<g>
</g>
<g>
</g>
</svg>
